<svg xmlns="http://www.w3.org/2000/svg" xml:space="preserve" viewBox="0 237.4 283.5 159.4"><path fill="none" d="M0 237.4h283.5v159.4H0z"/><path d="M-189.62 338.594c-12.5 0-22.5 9.4-22.5 22v45.301c0-.047.045-.089.069-.133v21.996h.068v21.938c0 12.6 10 22 22.5 22h126.699c12.6 0 22.9-9.4 22.9-22v-45c0 .033-.044.064-.068.096v-17.684h-.068v-26.514c0-12.6-10.3-22-22.9-22h-126.551zm.149 9.102h126.5c3.636 0 6.85 1.39 9.16 3.687 2.298 2.336 3.691 5.574 3.691 9.211v46l.069-.035v21.2h.068v21.937c0 3.638-1.393 6.875-3.691 9.21-2.311 2.298-5.524 3.688-9.16 3.688h-126.5c-7.3 0-13.5-5.598-13.5-12.898v-4.5c0 .09-.062.172-.149.25v-17.688h.068v-.347q-.029.026-.068.049v-23.465q-.03.026-.068.049V388.26c.086.078.148.16.148.25v-1.402h-.217v-22.264c.087.078.149.16.149.25v-4.5c0-7.3 6.2-12.898 13.5-12.898" class="st3" style="font-variation-settings:normal;opacity:.1;vector-effect:none;fill:#000;fill-opacity:1;stroke-width:1;stroke-linecap:butt;stroke-linejoin:miter;stroke-miterlimit:4;stroke-dasharray:none;stroke-dashoffset:0;stroke-opacity:1;-inkscape-stroke:none;stop-color:#000;stop-opacity:1" transform="translate(269.071 -86.725)"/><path d="M-192.26 335.955c-12.5 0-22.5 9.4-22.5 22v45.3c0-.047.045-.088.07-.132v21.996h.068v21.937c0 12.6 10 22 22.5 22h126.698c12.6 0 22.901-9.4 22.901-22v-45c0 .033-.044.064-.068.096V384.47h-.069v-26.514c0-12.6-10.3-22-22.9-22h-126.55zm.15 9.101h126.5c3.636 0 6.849 1.39 9.16 3.688 2.298 2.336 3.69 5.573 3.69 9.21v46l.07-.034v21.199h.068v21.937c0 3.638-1.393 6.876-3.692 9.211-2.31 2.298-5.523 3.688-9.16 3.688h-126.5c-7.3 0-13.5-5.599-13.5-12.899v-4.5c0 .09-.062.172-.148.25V425.12h.068v-.348q-.03.027-.068.05v-23.466q-.03.028-.069.049v-15.783c.087.078.149.16.149.25v-1.402h-.217v-22.264c.086.078.148.16.148.25v-4.5c0-7.3 6.2-12.899 13.5-12.899" class="st3" style="font-variation-settings:normal;vector-effect:none;fill:#3396da;fill-opacity:1;stroke-width:1;stroke-linecap:butt;stroke-linejoin:miter;stroke-miterlimit:4;stroke-dasharray:none;stroke-dashoffset:0;stroke-opacity:1;-inkscape-stroke:none;stop-color:#000" transform="translate(269.071 -86.725)"/><path d="M-191.562 345.056c-7.3 0-13.5 5.599-13.5 12.899v4.5c0-.09-.062-.172-.148-.25v22.264h.216v1.402c0-.09-.061-.172-.148-.25v15.783c.025-.015.052-.03.07-.049v23.465q.039-.021.069-.049v.348h-.069v17.687c.087-.078.149-.159.149-.25v4.5c0 7.3 6.2 12.899 13.5 12.899h126.5c3.636 0 6.85-1.39 9.16-3.688 2.298-2.335 3.691-5.573 3.691-9.21v-21.938h-.07v-21.2l-.068.036v-46c0-3.638-1.393-6.875-3.692-9.21-2.31-2.298-5.523-3.688-9.16-3.688z" style="font-variation-settings:normal;fill:#fff;fill-opacity:1;fill-rule:evenodd;stroke:none;stroke-width:3.64724;stroke-linecap:round;stroke-linejoin:miter;stroke-miterlimit:4;stroke-dasharray:3.64724,7.29448;stroke-dashoffset:0;stroke-opacity:1;stop-color:#000" transform="translate(269.071 -86.725)"/><path d="M-102.251 393.422c-.8 10.6 7.9 19.3 18.5 18.5 8.3-.7 15-7.4 15.7-15.7.8-10.6-7.9-19.3-18.5-18.5-8.3.7-15 7.4-15.7 15.7" class="st1" style="fill:#d40000" transform="translate(269.071 -86.725)"/><path d="M-100.251 395.422c-.8 10.6 7.9 19.3 18.5 18.5 8.3-.7 15-7.4 15.7-15.7.8-10.6-7.9-19.3-18.5-18.5-8.3.7-15 7.4-15.7 15.7" class="st1" style="font-variation-settings:normal;opacity:.1;vector-effect:none;fill:#000;fill-opacity:1;stroke-width:1;stroke-linecap:butt;stroke-linejoin:miter;stroke-miterlimit:4;stroke-dasharray:none;stroke-dashoffset:0;stroke-opacity:1;-inkscape-stroke:none;stop-color:#000;stop-opacity:1" transform="translate(269.071 -86.725)"/><path d="M-189.282 403.412Z" style="fill:none;stroke:#000;stroke-width:1px;stroke-linecap:butt;stroke-linejoin:miter;stroke-opacity:1" transform="translate(269.071 -86.725)"/><path d="M33.681 433.544c58.357 13.729 69.755 31.01 69.755 31.01s11.639-27.182 16.037-32.336l1.787-2.094" style="opacity:.1;fill:none;stroke:#000;stroke-width:3.64724;stroke-linecap:round;stroke-linejoin:miter;stroke-dasharray:3.64724,7.29449;stroke-dashoffset:0;stroke-opacity:1" transform="translate(53.812 -103.925)"/><path d="M31.681 431.544c58.357 13.729 69.755 31.01 69.755 31.01s11.639-27.182 16.037-32.336l1.787-2.094" style="fill:none;stroke:#000;stroke-width:3.64724;stroke-linecap:round;stroke-linejoin:miter;stroke-dasharray:3.64724,7.29449;stroke-dashoffset:0;stroke-opacity:1" transform="translate(53.812 -103.925)"/></svg>